<?xml version="1.0" encoding="UTF-8" standalone="no"?>
<!-- Created with Inkscape (http://www.inkscape.org/) -->

<svg
   width="757.34595mm"
   height="370.19232mm"
   viewBox="78 38 611.11848 298.716"
   version="1.1"
   id="svg1"
   xml:space="preserve"
   inkscape:version="1.4.3 (0d15f75, 2025-12-25)"
   sodipodi:docname="drawing.svg"
   xmlns:inkscape="http://www.inkscape.org/namespaces/inkscape"
   xmlns:sodipodi="http://sodipodi.sourceforge.net/DTD/sodipodi-0.dtd"
   xmlns="http://www.w3.org/2000/svg"
   xmlns:svg="http://www.w3.org/2000/svg"><sodipodi:namedview
     id="namedview1"
     pagecolor="#ffffff"
     bordercolor="#999999"
     borderopacity="1"
     inkscape:showpageshadow="2"
     inkscape:pageopacity="0"
     inkscape:pagecheckerboard="0"
     inkscape:deskcolor="#d1d1d1"
     inkscape:document-units="mm"
     inkscape:zoom="0.32141864"
     inkscape:cx="1418.7105"
     inkscape:cy="497.79315"
     inkscape:window-width="1920"
     inkscape:window-height="1027"
     inkscape:window-x="1440"
     inkscape:window-y="25"
     inkscape:window-maximized="1"
     inkscape:current-layer="layer1" /><defs
     id="defs1" /><g
     inkscape:label="Layer 1"
     inkscape:groupmode="layer"
     id="layer1"
     transform="translate(292.80312,31.044779)"><path
       style="fill:#000000"
       d="m -45.805017,290.31396 v -14.2875 l 18.32239,-0.005 c 20.1709394,-0.005 20.5270394,-0.0294 23.4835694,-1.60522 3.07454004,-1.63871 5.2519397,-4.85015 5.8150797,-8.57665 0.18599,-1.23074 0.2558,-10.37342 0.20807,-27.25208 l -0.0718,-25.4 -5.5562497,-0.0544 C -66.386687,212.51934 -112.282,202.77587 -140.39356,184.09346 c -11.82316,-7.85745 -20.72057,-17.4439 -26.2104,-28.24021 -3.53283,-6.94767 -5.47469,-13.12426 -6.9284,-22.03756 -0.38224,-2.34372 -0.44995,-7.67396 -0.58813,-46.304856 -0.1436,-40.14482 -0.19257,-43.77897 -0.60876,-45.18204 -1.29975,-4.38169 -3.6731,-6.67854 -7.81991,-7.56787 -0.96407,-0.20675 -7.3103,-0.29904 -20.56367,-0.29904 H -222.2821 V 20.174384 5.8868851 h 95.11771 95.117703 v 14.2874989 14.2875 h -19.00141 c -12.56465,0 -19.52905,0.0975 -20.55902,0.28794 -3.09481,0.57211 -5.68817,2.42009 -6.99728,4.98616 -1.40135,2.74688 -1.35548,0.94275 -1.25357,49.30587 0.10241,48.602506 0.004,45.215686 1.53027,52.443976 3.87257,18.33521 15.74268,30.68352 35.96226,37.41103 10.70219,3.56085 26.702539,5.84835 40.9074794,5.84835 h 3.5425197 l -0.002,-23.48177 c -10e-4,-14.91405 -0.10206,-24.10927 -0.27625,-25.20156 -0.58796,-3.68697 -2.8423897,-6.94778 -5.8705997,-8.49125 -3.03968,-1.54932 -3.1201,-1.55473 -23.1537494,-1.55901 l -18.3224,-0.004 V 111.58783 97.168044 h 94.60033 94.600387 l -0.087,-26.65677 c -0.079,-24.20058 -0.1287,-26.79736 -0.5388,-28.18257 -1.2963,-4.37929 -3.6718,-6.67846 -7.819,-7.56787 -0.964,-0.20675 -7.3103,-0.29904 -20.5636,-0.29904 H 95.482578 V 20.174294 5.8867951 h 76.067702 76.0677 v 14.2779889 14.27799 l -19.9099,0.0757 -19.9099,0.0757 -1.4935,0.60391 c -3.0964,1.25202 -4.6992,3.00513 -5.8582,6.40754 l -0.5858,1.7198 -0.073,26.92135 -0.073,26.92135 h 59.7386 c 64.2428,0 62.6647,-0.0307 69.0472,1.34436 17.2586,3.718266 31.7504,15.276736 37.6245,30.008766 2.6859,6.7361 3.3239,10.31025 3.3297,18.65313 0,5.73547 -0.066,6.82979 -0.6063,9.49852 -1.5175,7.49265 -4.5593,14.38697 -8.9972,20.39257 -1.7845,2.41487 -6.1206,6.92579 -8.6482,8.99684 -6.1928,5.07437 -13.6459,8.57079 -21.7603,10.20814 -1.8562,0.37457 -3.4914,0.7954 -3.6336,0.93518 -0.1684,0.16542 -0.1593,0.41172 0.026,0.70553 0.1999,0.31699 1.073,0.58296 2.9321,0.89325 21.3505,3.56353 38.7064,20.36826 43.0757,41.70767 2.5276,12.34466 0.6499,25.42528 -5.1457,35.84838 -3.9317,7.07072 -10.1156,13.66464 -17.3463,18.4965 -5.2093,3.48099 -13.6394,7.0177 -19.9865,8.38492 -6.7619,1.45659 6.9349,1.35958 -191.9583,1.35958 H -45.805017 Z m 314.192697,-14.9891 c 1.3097,-0.30629 3.4667,-0.96557 4.7933,-1.46506 10.0248,-3.7745 17.5122,-12.60984 19.6888,-23.23334 0.8029,-3.91852 0.6445,-10.03691 -0.358,-13.83611 -3.0922,-11.71735 -11.9207,-20.14486 -24.1241,-23.02819 l -2.3812,-0.56263 -85.262,-0.0755 -85.261992,-0.0755 v 31.49296 31.49297 l 85.261992,-0.0763 85.262,-0.0763 z m -162.9833,-91.2403 c 10.6738,-1.55977 19.51,-5.70504 25.9292,-12.164 3.1088,-3.12815 5.1836,-5.95425 7.1339,-9.71727 2.7565,-5.31867 4.3634,-10.90957 4.8899,-17.01329 0.1506,-1.74625 0.275,-6.77664 0.2765,-11.17864 v -8.00365 h -24.077 -24.077122 v 29.40955 29.40956 l 3.50573,-0.15848 c 1.928152,-0.0872 4.815392,-0.34986 6.416092,-0.58378 z m 164.7031,-0.20102 c 10.9658,-2.78132 18.6992,-9.79741 21.9436,-19.90812 1.0954,-3.41352 1.4384,-6.21179 1.2615,-10.29103 -0.3261,-7.51788 -3.3902,-14.26133 -8.8723,-19.52597 -3.482,-3.34383 -7.1498,-5.5335 -11.5966,-6.92308 -4.8133,-1.50412 -2.2547,-1.43916 -50.9565,-1.29378 l -22.1589,0.0661 v 7.11572 c 0,3.91364 -0.124,8.34872 -0.2757,9.85572 -1.4669,14.57963 -8.9386,28.85727 -20.1172,38.44241 -1.517,1.30069 -2.9353,2.52399 -3.152,2.71843 -0.3288,0.29512 7.2574,0.33919 45.9052,0.26665 41.9567,-0.0788 46.4604,-0.12781 48.0189,-0.5231 z m 106.0667,120.35264 c -2.3796,-0.85036 -4.3429,-2.69917 -5.4786,-5.15922 -0.5779,-1.25181 -0.6865,-1.86353 -0.6865,-3.86821 0,-2.00468 0.1086,-2.6164 0.6865,-3.86821 1.3085,-2.83438 3.4875,-4.69156 6.3713,-5.43036 6.705,-1.71774 12.98,4.34689 11.5693,11.18153 -0.4443,2.15294 -1.15,3.42251 -2.7952,5.02869 -1.87,1.82572 -3.6153,2.48506 -6.5367,2.46945 -1.1951,-0.006 -2.6036,-0.16554 -3.1301,-0.35367 z m 6.3348,-2.25693 c 1.5877,-0.80998 2.5108,-1.69936 3.3658,-3.24288 0.683,-1.23299 0.7816,-1.67792 0.7816,-3.52762 0,-1.73386 -0.1192,-2.35002 -0.659,-3.40698 -2.3413,-4.58461 -8.1709,-5.52473 -11.7937,-1.90194 -1.5365,1.53648 -2.2317,3.19464 -2.2317,5.32279 0,3.28856 1.9258,5.93438 5.213,7.16196 1.3136,0.49056 3.9634,0.28883 5.324,-0.40533 z m -6.3037,-6.7705 v -4.63021 l 2.3152,9.9e-4 c 2.7746,0.001 3.8013,0.47416 4.2984,1.98016 0.4637,1.40506 0.1429,2.62591 -0.9204,3.50232 l -0.9016,0.74316 1.0438,1.36881 c 0.5741,0.75284 1.0438,1.43544 1.0438,1.51689 0,0.0815 -0.5655,0.14747 -1.2568,0.14672 -1.2337,-10e-4 -1.2737,-0.028 -2.1828,-1.45384 -0.5093,-0.79886 -1.0153,-1.45309 -1.1244,-1.45384 -0.1092,-7.5e-4 -0.1985,0.65348 -0.1985,1.45384 v 1.45521 h -1.0583 -1.0584 z m 4.1805,-0.71437 c 0.8675,-0.86755 0.065,-2.06375 -1.3849,-2.06375 -0.6282,0 -0.6789,0.0889 -0.6789,1.19062 0,1.17058 0.015,1.19063 0.8731,1.19063 0.4803,0 1.016,-0.14288 1.1907,-0.3175 z"
       id="path1" /></g></svg>
